<mxfile host="65bd71144e">
    <diagram name="Страница 1" id="hlILQuanGjLB2rlqUcfx">
        <mxGraphModel dx="1537" dy="357" grid="1" gridSize="10" guides="1" tooltips="1" connect="1" arrows="1" fold="1" page="1" pageScale="1" pageWidth="827" pageHeight="1169" math="0" shadow="0">
            <root>
                <mxCell id="0"/>
                <mxCell id="1" parent="0"/>
                <mxCell id="81rwY3mGK5LgOC5ezEOb-44" value="" style="rounded=1;whiteSpace=wrap;html=1;fillColor=none;dashed=1;dashPattern=8 8;" parent="1" vertex="1">
                    <mxGeometry x="-360" y="410" width="200" height="120" as="geometry"/>
                </mxCell>
                <mxCell id="81rwY3mGK5LgOC5ezEOb-6" value="" style="rounded=1;whiteSpace=wrap;html=1;fillColor=none;dashed=1;dashPattern=8 8;fontFamily=Tahoma;" parent="1" vertex="1">
                    <mxGeometry x="20" y="80" width="470" height="140" as="geometry"/>
                </mxCell>
                <mxCell id="81rwY3mGK5LgOC5ezEOb-21" value="" style="rounded=1;whiteSpace=wrap;html=1;fillColor=none;dashed=1;dashPattern=8 8;fontFamily=Tahoma;" parent="1" vertex="1">
                    <mxGeometry x="20" y="400" width="470" height="140" as="geometry"/>
                </mxCell>
                <mxCell id="81rwY3mGK5LgOC5ezEOb-13" value="" style="rounded=1;whiteSpace=wrap;html=1;fillColor=none;dashed=1;dashPattern=8 8;fontFamily=Tahoma;" parent="1" vertex="1">
                    <mxGeometry x="20" y="240" width="470" height="140" as="geometry"/>
                </mxCell>
                <mxCell id="Xg_cVoiJlZ407YM_Tam--1" value="API GATEWAY" style="rounded=0;whiteSpace=wrap;html=1;fontFamily=Courier New;fontSize=15;verticalAlign=middle;fontStyle=1;fillColor=#fff2cc;strokeColor=#d6b656;" parent="1" vertex="1">
                    <mxGeometry x="-330" y="440" width="140" height="60" as="geometry"/>
                </mxCell>
                <mxCell id="Xg_cVoiJlZ407YM_Tam--7" value="" style="shape=datastore;whiteSpace=wrap;html=1;fillColor=#d5e8d4;strokeColor=#82b366;fontFamily=Tahoma;" parent="1" vertex="1">
                    <mxGeometry x="409" y="120" width="60" height="60" as="geometry"/>
                </mxCell>
                <mxCell id="Xg_cVoiJlZ407YM_Tam--11" value="" style="endArrow=classic;html=1;rounded=0;fontFamily=Tahoma;" parent="1" edge="1">
                    <mxGeometry width="50" height="50" relative="1" as="geometry">
                        <mxPoint x="289" y="140" as="sourcePoint"/>
                        <mxPoint x="399" y="140" as="targetPoint"/>
                    </mxGeometry>
                </mxCell>
                <mxCell id="Xg_cVoiJlZ407YM_Tam--12" value="" style="endArrow=classic;html=1;rounded=0;fontFamily=Tahoma;" parent="1" edge="1">
                    <mxGeometry width="50" height="50" relative="1" as="geometry">
                        <mxPoint x="399" y="160" as="sourcePoint"/>
                        <mxPoint x="289" y="160" as="targetPoint"/>
                    </mxGeometry>
                </mxCell>
                <mxCell id="Xg_cVoiJlZ407YM_Tam--13" value="MongoDB" style="text;html=1;strokeColor=none;fillColor=none;align=center;verticalAlign=middle;whiteSpace=wrap;rounded=0;fontFamily=Tahoma;fontSize=15;fontStyle=1" parent="1" vertex="1">
                    <mxGeometry x="409" y="180" width="60" height="30" as="geometry"/>
                </mxCell>
                <mxCell id="81rwY3mGK5LgOC5ezEOb-1" value="&lt;font size=&quot;1&quot; style=&quot;&quot;&gt;&lt;b style=&quot;font-size: 15px;&quot;&gt;User&lt;/b&gt;&lt;/font&gt;" style="swimlane;fontStyle=0;childLayout=stackLayout;horizontal=1;startSize=26;fillColor=#d5e8d4;horizontalStack=0;resizeParent=1;resizeParentMax=0;resizeLast=0;collapsible=1;marginBottom=0;html=1;strokeColor=#82b366;fontFamily=Tahoma;" parent="1" vertex="1">
                    <mxGeometry x="40" y="100" width="239" height="100" as="geometry">
                        <mxRectangle x="81" y="36" width="70" height="30" as="alternateBounds"/>
                    </mxGeometry>
                </mxCell>
                <mxCell id="81rwY3mGK5LgOC5ezEOb-2" value="1. Регистрация пользователя&lt;br&gt;2. Авторизация пользователя&lt;br&gt;3. Запрос информации по пользователю&lt;br&gt;4. Хранение аватарок" style="text;strokeColor=none;fillColor=none;align=left;verticalAlign=top;spacingLeft=4;spacingRight=4;overflow=hidden;rotatable=0;points=[[0,0.5],[1,0.5]];portConstraint=eastwest;whiteSpace=wrap;html=1;fontFamily=Tahoma;" parent="81rwY3mGK5LgOC5ezEOb-1" vertex="1">
                    <mxGeometry y="26" width="239" height="74" as="geometry"/>
                </mxCell>
                <mxCell id="81rwY3mGK5LgOC5ezEOb-7" value="" style="shape=datastore;whiteSpace=wrap;html=1;fillColor=#dae8fc;strokeColor=#6c8ebf;fontFamily=Tahoma;" parent="1" vertex="1">
                    <mxGeometry x="409" y="280" width="60" height="60" as="geometry"/>
                </mxCell>
                <mxCell id="81rwY3mGK5LgOC5ezEOb-8" value="" style="endArrow=classic;html=1;rounded=0;fontFamily=Tahoma;" parent="1" edge="1">
                    <mxGeometry width="50" height="50" relative="1" as="geometry">
                        <mxPoint x="289" y="300" as="sourcePoint"/>
                        <mxPoint x="399" y="300" as="targetPoint"/>
                    </mxGeometry>
                </mxCell>
                <mxCell id="81rwY3mGK5LgOC5ezEOb-9" value="" style="endArrow=classic;html=1;rounded=0;fontFamily=Tahoma;" parent="1" edge="1">
                    <mxGeometry width="50" height="50" relative="1" as="geometry">
                        <mxPoint x="399" y="320" as="sourcePoint"/>
                        <mxPoint x="289" y="320" as="targetPoint"/>
                    </mxGeometry>
                </mxCell>
                <mxCell id="81rwY3mGK5LgOC5ezEOb-10" value="PostgreSQL" style="text;html=1;strokeColor=none;fillColor=none;align=center;verticalAlign=middle;whiteSpace=wrap;rounded=0;fontFamily=Tahoma;fontSize=15;fontStyle=1" parent="1" vertex="1">
                    <mxGeometry x="409" y="340" width="60" height="30" as="geometry"/>
                </mxCell>
                <mxCell id="81rwY3mGK5LgOC5ezEOb-11" value="&lt;span style=&quot;font-size: 15px;&quot;&gt;&lt;b&gt;Task&lt;/b&gt;&lt;/span&gt;" style="swimlane;fontStyle=0;childLayout=stackLayout;horizontal=1;startSize=26;fillColor=#dae8fc;horizontalStack=0;resizeParent=1;resizeParentMax=0;resizeLast=0;collapsible=1;marginBottom=0;html=1;strokeColor=#6c8ebf;fontFamily=Tahoma;" parent="1" vertex="1">
                    <mxGeometry x="40" y="260" width="239" height="100" as="geometry">
                        <mxRectangle x="81" y="36" width="70" height="30" as="alternateBounds"/>
                    </mxGeometry>
                </mxCell>
                <mxCell id="81rwY3mGK5LgOC5ezEOb-12" value="1. Создание, редактирование, удаление&lt;br&gt;2. Статусы задания&lt;br&gt;3. Списки, пагинация, фильтрация&lt;br&gt;4. Хранение изображений" style="text;strokeColor=none;fillColor=none;align=left;verticalAlign=top;spacingLeft=4;spacingRight=4;overflow=hidden;rotatable=0;points=[[0,0.5],[1,0.5]];portConstraint=eastwest;whiteSpace=wrap;html=1;fontFamily=Tahoma;" parent="81rwY3mGK5LgOC5ezEOb-11" vertex="1">
                    <mxGeometry y="26" width="239" height="74" as="geometry"/>
                </mxCell>
                <mxCell id="81rwY3mGK5LgOC5ezEOb-15" value="" style="shape=datastore;whiteSpace=wrap;html=1;fillColor=#d5e8d4;strokeColor=#82b366;fontFamily=Tahoma;" parent="1" vertex="1">
                    <mxGeometry x="409" y="440" width="60" height="60" as="geometry"/>
                </mxCell>
                <mxCell id="81rwY3mGK5LgOC5ezEOb-16" value="" style="endArrow=classic;html=1;rounded=0;fontFamily=Tahoma;" parent="1" edge="1">
                    <mxGeometry width="50" height="50" relative="1" as="geometry">
                        <mxPoint x="289" y="460" as="sourcePoint"/>
                        <mxPoint x="399" y="460" as="targetPoint"/>
                    </mxGeometry>
                </mxCell>
                <mxCell id="81rwY3mGK5LgOC5ezEOb-17" value="" style="endArrow=classic;html=1;rounded=0;fontFamily=Tahoma;" parent="1" edge="1">
                    <mxGeometry width="50" height="50" relative="1" as="geometry">
                        <mxPoint x="399" y="480" as="sourcePoint"/>
                        <mxPoint x="289" y="480" as="targetPoint"/>
                    </mxGeometry>
                </mxCell>
                <mxCell id="81rwY3mGK5LgOC5ezEOb-18" value="MongoDB" style="text;html=1;strokeColor=none;fillColor=none;align=center;verticalAlign=middle;whiteSpace=wrap;rounded=0;fontFamily=Tahoma;fontSize=15;fontStyle=1" parent="1" vertex="1">
                    <mxGeometry x="409" y="500" width="60" height="30" as="geometry"/>
                </mxCell>
                <mxCell id="81rwY3mGK5LgOC5ezEOb-19" value="&lt;span style=&quot;font-size: 15px;&quot;&gt;&lt;b&gt;Comment&lt;/b&gt;&lt;/span&gt;" style="swimlane;fontStyle=0;childLayout=stackLayout;horizontal=1;startSize=26;fillColor=#d5e8d4;horizontalStack=0;resizeParent=1;resizeParentMax=0;resizeLast=0;collapsible=1;marginBottom=0;html=1;strokeColor=#82b366;fontFamily=Tahoma;" parent="1" vertex="1">
                    <mxGeometry x="40" y="420" width="239" height="100" as="geometry">
                        <mxRectangle x="81" y="36" width="70" height="30" as="alternateBounds"/>
                    </mxGeometry>
                </mxCell>
                <mxCell id="81rwY3mGK5LgOC5ezEOb-20" value="1. Создание, удаление&lt;br&gt;2. Списки" style="text;strokeColor=none;fillColor=none;align=left;verticalAlign=top;spacingLeft=4;spacingRight=4;overflow=hidden;rotatable=0;points=[[0,0.5],[1,0.5]];portConstraint=eastwest;whiteSpace=wrap;html=1;fontFamily=Tahoma;" parent="81rwY3mGK5LgOC5ezEOb-19" vertex="1">
                    <mxGeometry y="26" width="239" height="74" as="geometry"/>
                </mxCell>
                <mxCell id="81rwY3mGK5LgOC5ezEOb-22" value="" style="rounded=1;whiteSpace=wrap;html=1;fillColor=none;dashed=1;dashPattern=8 8;fontFamily=Tahoma;" parent="1" vertex="1">
                    <mxGeometry x="20" y="560" width="470" height="140" as="geometry"/>
                </mxCell>
                <mxCell id="81rwY3mGK5LgOC5ezEOb-23" value="" style="shape=datastore;whiteSpace=wrap;html=1;fillColor=#d5e8d4;strokeColor=#82b366;fontFamily=Tahoma;" parent="1" vertex="1">
                    <mxGeometry x="409" y="600" width="60" height="60" as="geometry"/>
                </mxCell>
                <mxCell id="81rwY3mGK5LgOC5ezEOb-24" value="" style="endArrow=classic;html=1;rounded=0;fontFamily=Tahoma;" parent="1" edge="1">
                    <mxGeometry width="50" height="50" relative="1" as="geometry">
                        <mxPoint x="289" y="620" as="sourcePoint"/>
                        <mxPoint x="399" y="620" as="targetPoint"/>
                    </mxGeometry>
                </mxCell>
                <mxCell id="81rwY3mGK5LgOC5ezEOb-25" value="" style="endArrow=classic;html=1;rounded=0;fontFamily=Tahoma;" parent="1" edge="1">
                    <mxGeometry width="50" height="50" relative="1" as="geometry">
                        <mxPoint x="399" y="640" as="sourcePoint"/>
                        <mxPoint x="289" y="640" as="targetPoint"/>
                    </mxGeometry>
                </mxCell>
                <mxCell id="81rwY3mGK5LgOC5ezEOb-26" value="MongoDB" style="text;html=1;strokeColor=none;fillColor=none;align=center;verticalAlign=middle;whiteSpace=wrap;rounded=0;fontFamily=Tahoma;fontSize=15;fontStyle=1" parent="1" vertex="1">
                    <mxGeometry x="409" y="660" width="60" height="30" as="geometry"/>
                </mxCell>
                <mxCell id="81rwY3mGK5LgOC5ezEOb-27" value="&lt;span style=&quot;font-size: 15px;&quot;&gt;&lt;b&gt;Review&lt;/b&gt;&lt;/span&gt;" style="swimlane;fontStyle=0;childLayout=stackLayout;horizontal=1;startSize=26;fillColor=#d5e8d4;horizontalStack=0;resizeParent=1;resizeParentMax=0;resizeLast=0;collapsible=1;marginBottom=0;html=1;strokeColor=#82b366;fontFamily=Tahoma;" parent="1" vertex="1">
                    <mxGeometry x="40" y="580" width="239" height="100" as="geometry">
                        <mxRectangle x="81" y="36" width="70" height="30" as="alternateBounds"/>
                    </mxGeometry>
                </mxCell>
                <mxCell id="81rwY3mGK5LgOC5ezEOb-28" value="1. Отзывы с оценкой" style="text;strokeColor=none;fillColor=none;align=left;verticalAlign=top;spacingLeft=4;spacingRight=4;overflow=hidden;rotatable=0;points=[[0,0.5],[1,0.5]];portConstraint=eastwest;whiteSpace=wrap;html=1;fontFamily=Tahoma;" parent="81rwY3mGK5LgOC5ezEOb-27" vertex="1">
                    <mxGeometry y="26" width="239" height="74" as="geometry"/>
                </mxCell>
                <mxCell id="81rwY3mGK5LgOC5ezEOb-37" value="" style="rounded=1;whiteSpace=wrap;html=1;fillColor=none;dashed=1;dashPattern=8 8;fontFamily=Tahoma;" parent="1" vertex="1">
                    <mxGeometry x="20" y="720" width="470" height="140" as="geometry"/>
                </mxCell>
                <mxCell id="81rwY3mGK5LgOC5ezEOb-38" value="" style="shape=datastore;whiteSpace=wrap;html=1;fillColor=#f8cecc;strokeColor=#b85450;fontFamily=Tahoma;" parent="1" vertex="1">
                    <mxGeometry x="409" y="760" width="60" height="60" as="geometry"/>
                </mxCell>
                <mxCell id="81rwY3mGK5LgOC5ezEOb-39" value="" style="endArrow=classic;html=1;rounded=0;fontFamily=Tahoma;" parent="1" edge="1">
                    <mxGeometry width="50" height="50" relative="1" as="geometry">
                        <mxPoint x="289" y="780" as="sourcePoint"/>
                        <mxPoint x="399" y="780" as="targetPoint"/>
                    </mxGeometry>
                </mxCell>
                <mxCell id="81rwY3mGK5LgOC5ezEOb-40" value="" style="endArrow=classic;html=1;rounded=0;fontFamily=Tahoma;" parent="1" edge="1">
                    <mxGeometry width="50" height="50" relative="1" as="geometry">
                        <mxPoint x="399" y="800" as="sourcePoint"/>
                        <mxPoint x="289" y="800" as="targetPoint"/>
                    </mxGeometry>
                </mxCell>
                <mxCell id="81rwY3mGK5LgOC5ezEOb-41" value="RabbitMQ" style="text;html=1;strokeColor=none;fillColor=none;align=center;verticalAlign=middle;whiteSpace=wrap;rounded=0;fontFamily=Tahoma;fontSize=15;fontStyle=1" parent="1" vertex="1">
                    <mxGeometry x="409" y="820" width="60" height="30" as="geometry"/>
                </mxCell>
                <mxCell id="81rwY3mGK5LgOC5ezEOb-42" value="&lt;span style=&quot;font-size: 15px;&quot;&gt;&lt;b&gt;Notify&lt;/b&gt;&lt;/span&gt;" style="swimlane;fontStyle=0;childLayout=stackLayout;horizontal=1;startSize=26;fillColor=#f8cecc;horizontalStack=0;resizeParent=1;resizeParentMax=0;resizeLast=0;collapsible=1;marginBottom=0;html=1;strokeColor=#b85450;fontFamily=Tahoma;" parent="1" vertex="1">
                    <mxGeometry x="40" y="740" width="239" height="100" as="geometry">
                        <mxRectangle x="81" y="36" width="70" height="30" as="alternateBounds"/>
                    </mxGeometry>
                </mxCell>
                <mxCell id="81rwY3mGK5LgOC5ezEOb-43" value="1. Рассылка уведомлений" style="text;strokeColor=none;fillColor=none;align=left;verticalAlign=top;spacingLeft=4;spacingRight=4;overflow=hidden;rotatable=0;points=[[0,0.5],[1,0.5]];portConstraint=eastwest;whiteSpace=wrap;html=1;fontFamily=Tahoma;" parent="81rwY3mGK5LgOC5ezEOb-42" vertex="1">
                    <mxGeometry y="26" width="239" height="74" as="geometry"/>
                </mxCell>
                <mxCell id="81rwY3mGK5LgOC5ezEOb-48" value="" style="endArrow=classic;html=1;rounded=0;exitX=1;exitY=0.5;exitDx=0;exitDy=0;dashed=1;dashPattern=8 8;" parent="1" source="81rwY3mGK5LgOC5ezEOb-44" edge="1">
                    <mxGeometry width="50" height="50" relative="1" as="geometry">
                        <mxPoint x="-300" y="260" as="sourcePoint"/>
                        <mxPoint x="20" y="150" as="targetPoint"/>
                        <Array as="points">
                            <mxPoint x="-80" y="470"/>
                            <mxPoint x="-80" y="150"/>
                        </Array>
                    </mxGeometry>
                </mxCell>
                <mxCell id="81rwY3mGK5LgOC5ezEOb-50" value="" style="endArrow=classic;html=1;rounded=0;entryX=0;entryY=0.5;entryDx=0;entryDy=0;dashed=1;dashPattern=8 8;" parent="1" target="81rwY3mGK5LgOC5ezEOb-37" edge="1">
                    <mxGeometry width="50" height="50" relative="1" as="geometry">
                        <mxPoint x="-80" y="470" as="sourcePoint"/>
                        <mxPoint x="20" y="790" as="targetPoint"/>
                        <Array as="points">
                            <mxPoint x="-80" y="470"/>
                            <mxPoint x="-80" y="790"/>
                        </Array>
                    </mxGeometry>
                </mxCell>
                <mxCell id="81rwY3mGK5LgOC5ezEOb-52" value="" style="endArrow=classic;html=1;rounded=0;entryX=0;entryY=0.5;entryDx=0;entryDy=0;dashed=1;dashPattern=8 8;" parent="1" target="81rwY3mGK5LgOC5ezEOb-13" edge="1">
                    <mxGeometry width="50" height="50" relative="1" as="geometry">
                        <mxPoint x="-80" y="310" as="sourcePoint"/>
                        <mxPoint x="-130" y="290" as="targetPoint"/>
                        <Array as="points">
                            <mxPoint x="-20" y="310"/>
                        </Array>
                    </mxGeometry>
                </mxCell>
                <mxCell id="81rwY3mGK5LgOC5ezEOb-55" value="" style="endArrow=classic;html=1;rounded=0;entryX=0;entryY=0.5;entryDx=0;entryDy=0;dashed=1;dashPattern=8 8;" parent="1" target="81rwY3mGK5LgOC5ezEOb-21" edge="1">
                    <mxGeometry width="50" height="50" relative="1" as="geometry">
                        <mxPoint x="-80" y="470" as="sourcePoint"/>
                        <mxPoint x="-130" y="290" as="targetPoint"/>
                        <Array as="points">
                            <mxPoint x="-80" y="470"/>
                        </Array>
                    </mxGeometry>
                </mxCell>
                <mxCell id="81rwY3mGK5LgOC5ezEOb-56" value="" style="endArrow=classic;html=1;rounded=0;entryX=0;entryY=0.5;entryDx=0;entryDy=0;dashed=1;dashPattern=8 8;" parent="1" target="81rwY3mGK5LgOC5ezEOb-22" edge="1">
                    <mxGeometry width="50" height="50" relative="1" as="geometry">
                        <mxPoint x="-80" y="630" as="sourcePoint"/>
                        <mxPoint x="20" y="470" as="targetPoint"/>
                        <Array as="points"/>
                    </mxGeometry>
                </mxCell>
                <mxCell id="81rwY3mGK5LgOC5ezEOb-57" value="" style="endArrow=classic;html=1;rounded=0;entryX=1;entryY=0.5;entryDx=0;entryDy=0;dashed=1;dashPattern=8 8;fontFamily=Tahoma;" parent="1" target="81rwY3mGK5LgOC5ezEOb-6" edge="1">
                    <mxGeometry width="50" height="50" relative="1" as="geometry">
                        <mxPoint x="490" y="320" as="sourcePoint"/>
                        <mxPoint x="-160" y="210" as="targetPoint"/>
                        <Array as="points">
                            <mxPoint x="490" y="320"/>
                            <mxPoint x="520" y="320"/>
                            <mxPoint x="520" y="150"/>
                        </Array>
                    </mxGeometry>
                </mxCell>
                <mxCell id="81rwY3mGK5LgOC5ezEOb-58" value="Запрос типа пользователя" style="text;html=1;strokeColor=#6c8ebf;fillColor=#dae8fc;align=center;verticalAlign=middle;whiteSpace=wrap;rounded=1;rotation=270;fontSize=13;fontFamily=Tahoma;" parent="1" vertex="1">
                    <mxGeometry x="453" y="219" width="170" height="30" as="geometry"/>
                </mxCell>
                <mxCell id="81rwY3mGK5LgOC5ezEOb-59" value="" style="endArrow=classic;html=1;rounded=0;entryX=1;entryY=0.75;entryDx=0;entryDy=0;dashed=1;dashPattern=8 8;exitX=1.003;exitY=0.367;exitDx=0;exitDy=0;exitPerimeter=0;fontFamily=Tahoma;" parent="1" source="81rwY3mGK5LgOC5ezEOb-6" target="81rwY3mGK5LgOC5ezEOb-13" edge="1">
                    <mxGeometry width="50" height="50" relative="1" as="geometry">
                        <mxPoint x="600" y="130" as="sourcePoint"/>
                        <mxPoint x="680" y="160" as="targetPoint"/>
                        <Array as="points">
                            <mxPoint x="560" y="131"/>
                            <mxPoint x="560" y="345"/>
                        </Array>
                    </mxGeometry>
                </mxCell>
                <mxCell id="81rwY3mGK5LgOC5ezEOb-60" value="запрос мои задания" style="text;html=1;strokeColor=#82b366;fillColor=#d5e8d4;align=center;verticalAlign=middle;whiteSpace=wrap;rounded=1;rotation=270;fontSize=13;fontFamily=Tahoma;" parent="1" vertex="1">
                    <mxGeometry x="493" y="210" width="170" height="30" as="geometry"/>
                </mxCell>
                <mxCell id="81rwY3mGK5LgOC5ezEOb-61" value="" style="endArrow=classic;html=1;rounded=0;entryX=1;entryY=0.75;entryDx=0;entryDy=0;dashed=1;dashPattern=8 8;fontFamily=Tahoma;" parent="1" target="81rwY3mGK5LgOC5ezEOb-21" edge="1">
                    <mxGeometry width="50" height="50" relative="1" as="geometry">
                        <mxPoint x="490" y="360" as="sourcePoint"/>
                        <mxPoint x="670" y="200" as="targetPoint"/>
                        <Array as="points">
                            <mxPoint x="490" y="360"/>
                            <mxPoint x="560" y="360"/>
                            <mxPoint x="560" y="430"/>
                            <mxPoint x="560" y="505"/>
                        </Array>
                    </mxGeometry>
                </mxCell>
                <mxCell id="81rwY3mGK5LgOC5ezEOb-62" value="запрос комментариев" style="text;html=1;strokeColor=#6c8ebf;fillColor=#dae8fc;align=center;verticalAlign=middle;whiteSpace=wrap;rounded=1;rotation=270;fontSize=13;fontFamily=Tahoma;" parent="1" vertex="1">
                    <mxGeometry x="505" y="417" width="146" height="30" as="geometry"/>
                </mxCell>
                <mxCell id="81rwY3mGK5LgOC5ezEOb-63" value="" style="endArrow=classic;html=1;rounded=0;entryX=1;entryY=0.5;entryDx=0;entryDy=0;dashed=1;dashPattern=8 8;exitX=1;exitY=0.25;exitDx=0;exitDy=0;fontFamily=Tahoma;" parent="1" source="81rwY3mGK5LgOC5ezEOb-6" target="81rwY3mGK5LgOC5ezEOb-22" edge="1">
                    <mxGeometry width="50" height="50" relative="1" as="geometry">
                        <mxPoint x="590" y="100" as="sourcePoint"/>
                        <mxPoint x="590" y="330" as="targetPoint"/>
                        <Array as="points">
                            <mxPoint x="610" y="115"/>
                            <mxPoint x="610" y="630"/>
                        </Array>
                    </mxGeometry>
                </mxCell>
                <mxCell id="81rwY3mGK5LgOC5ezEOb-64" value="запрос рейтинга пользователя" style="text;html=1;strokeColor=#82b366;fillColor=#d5e8d4;align=center;verticalAlign=middle;whiteSpace=wrap;rounded=1;rotation=270;fontSize=13;fontFamily=Tahoma;" parent="1" vertex="1">
                    <mxGeometry x="520" y="360" width="220" height="30" as="geometry"/>
                </mxCell>
                <mxCell id="81rwY3mGK5LgOC5ezEOb-66" value="" style="endArrow=classic;html=1;rounded=0;entryX=1;entryY=0.5;entryDx=0;entryDy=0;dashed=1;dashPattern=8 8;exitX=1.007;exitY=0.132;exitDx=0;exitDy=0;exitPerimeter=0;fontFamily=Tahoma;" parent="1" source="81rwY3mGK5LgOC5ezEOb-6" target="81rwY3mGK5LgOC5ezEOb-37" edge="1">
                    <mxGeometry width="50" height="50" relative="1" as="geometry">
                        <mxPoint x="540" y="100" as="sourcePoint"/>
                        <mxPoint x="540" y="615" as="targetPoint"/>
                        <Array as="points">
                            <mxPoint x="660" y="100"/>
                            <mxPoint x="660" y="790"/>
                        </Array>
                    </mxGeometry>
                </mxCell>
                <mxCell id="81rwY3mGK5LgOC5ezEOb-67" value="" style="shape=umlActor;verticalLabelPosition=bottom;verticalAlign=top;html=1;outlineConnect=0;" parent="1" vertex="1">
                    <mxGeometry x="-570" y="407.5" width="30" height="60" as="geometry"/>
                </mxCell>
                <mxCell id="81rwY3mGK5LgOC5ezEOb-68" value="" style="shape=umlActor;verticalLabelPosition=bottom;verticalAlign=top;html=1;outlineConnect=0;" parent="1" vertex="1">
                    <mxGeometry x="-610" y="422.5" width="30" height="60" as="geometry"/>
                </mxCell>
                <mxCell id="81rwY3mGK5LgOC5ezEOb-69" value="" style="shape=umlActor;verticalLabelPosition=bottom;verticalAlign=top;html=1;outlineConnect=0;" parent="1" vertex="1">
                    <mxGeometry x="-540" y="437.5" width="30" height="60" as="geometry"/>
                </mxCell>
                <mxCell id="81rwY3mGK5LgOC5ezEOb-72" value="HTTP запросы" style="text;html=1;strokeColor=none;fillColor=none;align=center;verticalAlign=middle;whiteSpace=wrap;rounded=0;" parent="1" vertex="1">
                    <mxGeometry x="-590" y="502.5" width="60" height="30" as="geometry"/>
                </mxCell>
                <mxCell id="81rwY3mGK5LgOC5ezEOb-73" value="" style="endArrow=classic;html=1;rounded=0;entryX=0;entryY=0.5;entryDx=0;entryDy=0;dashed=1;dashPattern=8 8;" parent="1" edge="1">
                    <mxGeometry width="50" height="50" relative="1" as="geometry">
                        <mxPoint x="-500" y="470" as="sourcePoint"/>
                        <mxPoint x="-360" y="469.5" as="targetPoint"/>
                        <Array as="points">
                            <mxPoint x="-500" y="470"/>
                        </Array>
                    </mxGeometry>
                </mxCell>
            </root>
        </mxGraphModel>
    </diagram>
</mxfile>